<?xml version="1.0" standalone="no"?>
<!DOCTYPE svg PUBLIC "-//W3C//DTD SVG 1.0//EN" "http://www.w3.org/TR/2001/REC-SVG-20010904/DTD/svg10.dtd">
<svg xmlns="http://www.w3.org/2000/svg" xmlns:xlink="http://www.w3.org/1999/xlink" id="body_1" width="36" height="36">

<g transform="matrix(0.5901639 0 0 0.5901639 0 0)">
    <path transform="matrix(1 0 0 1 0 0)"  d="M30.9166 0.120117C 14.4167 0.120117 0.916672 13.6442 0.916672 30.3008C 0.916672 45.3611 11.8967 57.8611 26.2366 60.1201L26.2366 60.1201L26.2366 39.0358L18.6166 39.0358L18.6166 30.3008L26.2366 30.3008L26.2366 23.6442C 26.2366 16.084 30.7066 11.9273 37.5766 11.9273C 40.8466 11.9273 44.2666 12.4996 44.2666 12.4996L44.2666 12.4996L44.2666 19.9394L40.4866 19.9394C 36.7666 19.9394 35.5966 22.2587 35.5966 24.6382L35.5966 24.6382L35.5966 30.3008L43.9366 30.3008L42.5866 39.0358L35.5966 39.0358L35.5966 60.1201C 42.6659 58.9992 49.1032 55.3777 53.7464 49.9095C 58.3895 44.4412 60.9326 37.4865 60.9166 30.3008C 60.9166 13.6442 47.4166 0.120117 30.9166 0.120117z" stroke="none" fill="#7C7C7C" fill-rule="nonzero" />
</g>
</svg>