<?xml version="1.0" standalone="no"?>
<!DOCTYPE svg PUBLIC "-//W3C//DTD SVG 1.0//EN" "http://www.w3.org/TR/2001/REC-SVG-20010904/DTD/svg10.dtd">
<svg xmlns="http://www.w3.org/2000/svg" xmlns:xlink="http://www.w3.org/1999/xlink" id="body_1" width="36" height="36">

<g transform="matrix(0.6 0 0 0.6 0 0)">
    <path transform="matrix(1 0 0 1 0 0)"  d="M30 0C 13.432 0 0 13.4314 0 30C 0 46.5686 13.432 60 30 60C 46.568 60 60 46.5686 60 30C 60 13.4314 46.568 0 30 0zM45.2176 33.2446C 46.6159 34.6103 48.0951 35.8957 49.3504 37.4026C 49.9065 38.0692 50.4307 38.7585 50.8297 39.5337C 51.3993 40.6392 50.8849 41.8515 49.8954 41.9171L49.8954 41.9171L43.7494 41.9159C 42.162 42.0473 40.8988 41.4071 39.8339 40.3218C 38.9837 39.457 38.195 38.5332 37.3762 37.6389C 37.0416 37.2718 36.6893 36.9262 36.2695 36.6543C 35.4316 36.1093 34.7036 36.2762 34.2236 37.1515C 33.7344 38.0421 33.6227 39.0292 33.5761 40.0205C 33.5092 41.4697 33.0721 41.8484 31.618 41.9165C 28.5109 42.062 25.5628 41.5906 22.8227 40.0241C 20.4055 38.6425 18.5346 36.6924 16.9043 34.4845C 13.7297 30.1805 11.2984 25.4566 9.11386 20.597C 8.6222 19.5026 8.98189 18.917 10.1893 18.8943C 12.1952 18.8557 14.2011 18.8606 16.2071 18.8925C 17.0234 18.9054 17.5636 19.3725 17.8772 20.1428C 18.9612 22.8098 20.2901 25.3473 21.9554 27.7007C 22.3992 28.3274 22.8522 28.9522 23.4973 29.3948C 24.2093 29.8834 24.7519 29.7219 25.0877 28.9271C 25.3025 28.4219 25.3952 27.8817 25.4418 27.3404C 25.6014 25.486 25.6205 23.6323 25.3442 21.7854C 25.1724 20.6296 24.5224 19.8832 23.3702 19.6647C 22.7834 19.5536 22.8694 19.3363 23.1548 19.0011C 23.6501 18.4217 24.1142 18.0632 25.0416 18.0632L25.0416 18.0632L31.9857 18.062C 33.0801 18.2768 33.3256 18.7679 33.4742 19.8703L33.4742 19.8703L33.4803 27.5871C 33.4674 28.0137 33.6945 29.2782 34.4606 29.5574C 35.0744 29.76 35.4795 29.2677 35.8465 28.8792C 37.5118 27.112 38.6983 25.0263 39.7608 22.8675C 40.2298 21.9155 40.6343 20.9303 41.0271 19.9433C 41.3193 19.2135 41.7735 18.8544 42.5972 18.8667L42.5972 18.8667L49.2841 18.8747C 49.4811 18.8747 49.6812 18.8765 49.8764 18.9103C 51.0034 19.103 51.3121 19.5879 50.9635 20.6873C 50.4147 22.4145 49.3485 23.8533 48.3063 25.2958C 47.1892 26.8401 45.9977 28.3304 44.8917 29.8815C 43.8752 31.2994 43.9556 32.0133 45.2176 33.2446z" stroke="none" fill="#7C7C7C" fill-rule="nonzero" />
</g>
</svg>